<?xml version="1.0" standalone="no"?>
<!DOCTYPE svg PUBLIC "-//W3C//DTD SVG 20010904//EN"
 "http://www.w3.org/TR/2001/REC-SVG-20010904/DTD/svg10.dtd">
<svg version="1.0" xmlns="http://www.w3.org/2000/svg"
 width="1024.000000pt" height="1024.000000pt" viewBox="0 0 1024.000000 1024.000000"
 preserveAspectRatio="xMidYMid meet">
<metadata>
Created by potrace 1.11, written by Peter Selinger 2001-2013
</metadata>
<g transform="translate(0.000000,1024.000000) scale(0.100000,-0.100000)"
fill="#000000" stroke="none">
<path d="M4580 9923 c-94 -44 -592 -292 -650 -324 -30 -17 -107 -60 -170 -96
-63 -37 -125 -71 -137 -77 -13 -6 -23 -14 -23 -18 0 -5 -5 -8 -10 -8 -23 0
-597 -373 -613 -397 -4 -7 -14 -13 -22 -13 -7 0 -15 -4 -17 -8 -1 -5 -25 -23
-53 -42 -27 -18 -57 -39 -65 -47 -8 -7 -64 -50 -125 -95 -60 -45 -112 -84
-115 -88 -3 -3 -25 -21 -50 -40 -25 -19 -47 -37 -50 -40 -3 -3 -32 -28 -65
-55 -121 -101 -139 -117 -265 -233 -165 -153 -359 -351 -515 -527 -113 -127
-322 -402 -415 -545 -75 -114 -100 -153 -100 -155 0 -1 -30 -54 -66 -116 -57
-97 -147 -276 -207 -409 -38 -86 -141 -365 -152 -413 -3 -12 -16 -62 -30 -112
-29 -102 -27 -96 -54 -230 -28 -140 -37 -195 -48 -300 -2 -22 -7 -69 -11 -105
-8 -83 -8 -571 1 -670 4 -41 9 -100 12 -130 7 -87 24 -193 57 -355 34 -170 36
-178 39 -185 1 -3 3 -10 3 -15 8 -73 184 -561 224 -623 8 -12 10 -22 6 -22 -5
0 -4 -4 1 -8 15 -10 35 -49 35 -67 0 -8 3 -15 8 -15 4 0 14 -15 21 -32 25 -56
136 -239 195 -321 31 -43 56 -81 56 -83 0 -3 6 -11 12 -18 7 -7 27 -30 43 -51
88 -112 124 -153 236 -264 129 -130 230 -218 344 -300 39 -27 79 -57 90 -65
61 -48 263 -166 375 -218 161 -76 211 -98 224 -98 8 0 18 -4 21 -10 3 -5 15
-10 26 -10 11 0 19 -7 19 -17 0 -9 -3 -13 -7 -10 -3 4 -11 3 -17 -2 -6 -4 -47
-28 -91 -51 -90 -49 -81 -44 -305 -170 -242 -135 -320 -182 -320 -190 0 -11
164 -176 240 -241 253 -216 570 -396 877 -498 89 -29 266 -74 336 -85 20 -3
54 -9 75 -12 43 -7 78 -11 147 -18 64 -6 319 -7 365 -2 19 3 55 7 80 10 48 6
85 13 85 17 0 1 9 3 20 4 44 6 72 14 110 29 22 10 41 17 42 17 17 -2 63 14 63
22 0 6 3 8 6 4 11 -11 195 92 276 156 86 67 172 153 223 222 17 22 32 42 35
45 11 11 58 88 92 150 43 78 90 193 114 275 9 33 18 67 21 75 2 8 30 -37 62
-100 31 -63 74 -141 94 -173 20 -31 37 -61 37 -66 0 -5 7 -11 15 -15 8 -3 15
-12 15 -20 0 -8 3 -16 8 -18 4 -1 33 -38 65 -81 31 -42 63 -77 69 -77 6 0 8
-3 5 -7 -7 -6 214 -233 227 -233 3 0 16 -10 29 -22 64 -63 262 -195 382 -256
78 -40 211 -102 220 -102 2 0 16 -5 32 -12 15 -6 31 -12 36 -13 4 -2 9 -4 12
-5 3 -1 10 -4 15 -5 6 -1 11 -3 13 -5 1 -1 9 -3 17 -6 8 -2 65 -17 126 -33
215 -58 423 -84 669 -85 125 0 279 9 307 19 7 2 36 6 63 9 48 5 70 9 125 21
14 4 36 8 50 11 228 46 547 167 845 319 211 108 511 287 568 339 9 9 18 15 20
14 2 -2 17 7 33 19 16 12 92 69 169 127 222 166 505 408 505 432 0 5 -26 22
-57 37 -32 16 -78 40 -103 54 -52 29 -336 177 -395 206 -22 11 -43 25 -47 31
-4 6 -8 8 -8 4 0 -3 -98 42 -217 101 -120 60 -247 121 -282 137 l-64 28 28 21
c39 27 206 177 274 245 53 53 130 138 221 247 5 7 10 17 10 23 0 5 3 10 8 10
20 0 219 320 296 475 59 119 98 202 101 215 1 3 5 14 10 25 54 131 130 362
142 430 3 17 9 38 14 48 5 9 7 17 5 17 -3 0 -1 11 4 25 9 25 17 55 25 105 2
14 7 36 10 50 14 60 42 224 50 295 3 28 8 64 10 80 7 49 17 166 19 220 0 28 6
53 11 57 6 5 5 8 -3 8 -9 0 -10 5 -3 18 10 19 8 616 -3 732 -3 36 -8 85 -10
110 -8 91 -18 172 -22 193 -2 12 -7 42 -9 67 -3 25 -8 52 -10 60 -3 8 -7 33
-11 55 -3 22 -7 45 -9 50 -1 6 -5 28 -10 50 -4 22 -10 49 -12 60 -2 11 -6 31
-9 45 -14 68 -93 341 -118 410 -9 25 -19 55 -21 66 -3 12 -26 71 -51 130 -25
60 -46 114 -47 119 -9 38 -197 400 -260 499 -60 95 -140 214 -186 275 -31 40
-63 84 -72 97 -37 56 -231 275 -340 383 -76 77 -189 181 -259 241 -14 12 -38
34 -55 48 -16 15 -46 38 -65 52 -19 13 -37 28 -41 32 -3 4 -54 44 -115 88 -60
44 -116 86 -124 93 -13 11 -126 85 -170 112 -37 22 -86 54 -95 62 -5 5 -31 19
-57 33 -27 14 -48 29 -48 33 0 5 -4 6 -9 2 -5 -3 -12 -1 -15 4 -7 11 -172 102
-182 101 -4 -1 -10 2 -13 7 -7 11 -405 207 -441 218 -7 2 -49 20 -132 55 -186
80 -538 205 -773 275 -49 14 -104 31 -122 36 -17 6 -43 12 -57 15 -14 2 -37 9
-51 14 -14 5 -25 7 -25 4 0 -4 -7 -1 -15 6 -8 7 -15 10 -15 7 0 -3 -16 -1 -36
5 -20 5 -45 12 -55 14 -11 2 -27 6 -36 9 -81 21 -139 33 -145 29 -3 -2 -9 0
-13 6 -4 6 -10 8 -15 5 -5 -3 -11 -1 -15 5 -4 6 -10 8 -14 5 -5 -2 -23 0 -41
5 -29 8 -255 52 -340 65 -19 3 -48 8 -65 11 -16 3 -41 7 -55 9 -14 2 -41 6
-60 10 -19 3 -55 8 -80 10 -25 2 -56 6 -69 9 -14 3 -54 8 -90 11 -36 3 -77 7
-91 10 -14 2 -48 -7 -80 -22z"/>
</g>
</svg>
